<?xml version="1.0" encoding="UTF-8"?>
<svg id="Warstwa_1" data-name="Warstwa 1" xmlns="http://www.w3.org/2000/svg" viewBox="0 0 123 128">
  <defs>
    <style>
      .cls-1 {
        fill: #ffb81a;
      }

      .cls-1, .cls-2, .cls-3, .cls-4 {
        stroke-width: 0px;
      }

      .cls-2 {
        fill: #000;
      }

      .cls-3 {
        fill: none;
      }

      .cls-4 {
        fill: #fff;
      }
    </style>
  </defs>
  <rect class="cls-3" x="55.47" y="59" width=".04" height=".06"/>
  <rect class="cls-3" x="55.47" y="69.48" width=".04" height=".09"/>
  <rect class="cls-3" x="65.93" y="59" width="21.56" height=".06"/>
  <rect class="cls-3" x="65.93" y="69.48" width="21.56" height=".09"/>
  <rect class="cls-3" x="55.47" y="35.96" width=".04" height="23.1"/>
  <rect class="cls-3" x="55.47" y="69.48" width=".04" height=".09"/>
  <rect class="cls-3" x="65.93" y="35.96" width=".01" height="23.1"/>
  <rect class="cls-3" x="65.93" y="69.48" width=".01" height=".09"/>
  <rect class="cls-3" x="55.47" y="35.96" width=".04" height="7.19"/>
  <rect class="cls-3" x="65.93" y="35.96" width=".01" height="7.19"/>
  <path class="cls-2" d="M61.03,25.97h-.33c.05-.02.11-.03.17-.03s.11.01.17.03Z"/>
  <rect class="cls-3" x="80.3" y="59" width="7.19" height=".06"/>
  <rect class="cls-3" x="80.3" y="69.48" width="7.19" height=".09"/>
  <path class="cls-1" d="M123,83.45c-2.75,3.56-2.55,8.81-6.69,11.6-.39.26-.51,1.34-.34,1.92,1.04,8.21-12.18,4.89-14.99.4-5.75-6.83-12.81-.84-15.58,5.41-2.54,4.41-5.45-3.89-10.2,1.1-2.71,2.04-7.79-1.73-7.84,3.35-1.05,16.65,20.22,3.24,28.46,11.64,23.02,14.34-116.47,9.11-83.17-.29,8.66,1.67,17.39,5.56,26.09,1.98,4.99-3.72,16.22-.13,17.25-7.37.18-2.88-2.6-2.89-4.49-2.96-9.31,1.21-8.46-12.93-17.6-10.29-2.84.49-4.78,2.1-4.66,5.35-1.62,8.93-18.48.78-21.59-3.6-4.24-6.6,1.68-11.42-7.49-16.87-1.62-12.03,9.52-11.3,8.92-19.36-.27-2.3.63-3.6,3.1-3.1,2.75.13,2.54-1.81,1.91-4.22-.93-3.58-2.78-8.2,2.75-8.73,5.71-1.15-.11-8.08,3.69-10.85,2.1-1.34,3.22-3.1,3.88-5.05,1.86-5.51.04-12.54,6.18-15.64,2.77-2.96,3.2-8.08,8.65-7.18,8.03.35,3.13-8.51,13.96-4.29,1.73.39,3.46.39,3.79-1.67.55-5.83,7.19,1.57,7.56-4.17,7.83-2.28,10.08,8.92,17.18,8.03,6.27-1.44,7.32,6.36,10.75,9.74.74.73,1.59,1.25,2.62,1.43,8.06-.37,11.86,10.54,9.35,18.12-.74,2.26-2.04,4.22-3.95,5.5-1.46,1.12-.93,2.44-.1,3.62,1.19,1.68,2.94,2.32,4.93,2.71,9.45.75,3.58,10.23,8.97,14.22,1.74,1.2,3.68,2.81,3.19,4.91-2.56,7.11,4.66,9.34,5.51,14.61Z"/>
  <path class="cls-4" d="M48.28,45.46l-6.61-6.61c-.91-.91-2.38-.91-3.29,0-.91.91-.91,2.38,0,3.29l6.61,6.61c.44.47,1.05.7,1.66.7s1.19-.24,1.64-.7c.91-.91.91-2.38,0-3.29ZM40.48,59.65h-9.35c-1.29,0-2.34,1.05-2.34,2.34s1.05,2.34,2.34,2.34h9.35c1.29,0,2.34-1.05,2.34-2.34s-1.06-2.34-2.34-2.34ZM48.28,75.21c-.91-.91-2.38-.91-3.29,0l-6.61,6.61c-.91.91-.91,2.38,0,3.29.47.44,1.05.68,1.66.68s1.19-.24,1.64-.68l6.61-6.61c.91-.91.91-2.38,0-3.29ZM61.51,80.68c-1.29,0-2.34,1.05-2.34,2.34v9.35c0,1.29,1.05,2.34,2.34,2.34s2.34-1.05,2.34-2.34v-9.35c0-1.29-1.05-2.34-2.34-2.34ZM84.64,81.82l-6.61-6.61c-.91-.91-2.38-.91-3.29,0-.91.91-.91,2.38,0,3.29l6.61,6.61c.44.44,1.05.68,1.64.68s1.19-.24,1.66-.68c.91-.91.91-2.38,0-3.29ZM91.89,59.65h-9.35c-1.29,0-2.34,1.05-2.34,2.34s1.05,2.34,2.34,2.34h9.35c1.29,0,2.34-1.05,2.34-2.34s-1.05-2.34-2.34-2.34ZM84.64,38.85c-.91-.91-2.38-.91-3.29,0l-6.61,6.61c-.91.91-.91,2.38,0,3.29.44.47,1.05.7,1.64.7s1.22-.24,1.66-.7l6.61-6.61c.91-.91.91-2.38,0-3.29ZM61.51,29.27c-1.29,0-2.34,1.05-2.34,2.34v9.35c0,1.29,1.05,2.34,2.34,2.34s2.34-1.05,2.34-2.34v-9.35c0-1.29-1.05-2.34-2.34-2.34ZM77.87,61.98c0,9.04-7.32,16.36-16.36,16.36s-16.36-7.32-16.36-16.36,7.32-16.36,16.36-16.36,16.36,7.32,16.36,16.36Z"/>
</svg>
